# xmcd
#
# Track frame offsets: 
#        182
#        15192
#        35137
#        50357
#
# Disc length: 870 seconds
#
# Revision: 1
# Processed by: cddbd v1.5.2PL0 Copyright (c) Steve Scherf et al.
# Submitted via: ExactAudioCopy v1.0b3
#
DISCID=26036404
DTITLE=Chris Norman - Wild wild Angel (M-CD)
DYEAR=1994
DGENRE=Pop
TTITLE0=Wild wild Angel (Radio)
TTITLE1=Wild wild Angel (Long)
TTITLE2=Wild wild Angel (Unplugged)
TTITLE3=Wild wild Angel (Instrumental)
EXTD=by R.F.
EXTT0=
EXTT1=
EXTT2=
EXTT3=
PLAYORDER=
